<svg viewBox="0 0 512 512" xmlns="http://www.w3.org/2000/svg" xmlns:xlink="http://www.w3.org/1999/xlink"><linearGradient id="a" gradientTransform="matrix(1 0 0 -1 0 -11082)" gradientUnits="userSpaceOnUse" x1="0" x2="512" y1="-11338" y2="-11338"><stop offset="0" stop-color="#31d8ff"/><stop offset="1" stop-color="#ff80ff"/></linearGradient><path d="m512 256c0 141.386719-114.613281 256-256 256s-256-114.613281-256-256 114.613281-256 256-256 256 114.613281 256 256zm0 0" fill="url(#a)"/><g fill="#fff"><path d="m289.894531 250.640625c-13.160156 10.289063-13.398437 17.46875-13.398437 29.910156 0 4.546875-2.394532 9.808594-14.117188 9.808594-9.8125 0-13.160156-3.589844-13.160156-16.03125 0-20.574219 9.089844-30.386719 16.03125-36.367187 7.894531-6.699219 21.292969-14.117188 21.292969-27.039063 0-11.007813-9.570313-16.273437-21.535157-16.273437-24.40625 0-19.140624 18.425781-32.0625 18.425781-6.460937 0-14.355468-4.308594-14.355468-13.640625 0-12.917969 14.835937-32.0625 47.136718-32.0625 30.628907 0 50.964844 16.988281 50.964844 39.480468 0 22.492188-20.335937 38.765626-26.796875 43.789063zm-8.851562 74.65625c0 9.808594-8.136719 18.421875-18.425781 18.421875-10.289063 0-18.183594-8.613281-18.183594-18.421875 0-10.050781 8.132812-18.425781 18.183594-18.425781 10.050781 0 18.425781 8.375 18.425781 18.425781zm0 0"/><path d="m268 424h-162c-8.28125 0-15-6.714844-15-15v-162c0-97.597656 79.402344-177 177-177 97.601562 0 177 79.402344 177 177s-79.398438 177-177 177zm-147-30h147c81.058594 0 147-65.945312 147-147s-65.941406-147-147-147c-81.054688 0-147 65.945312-147 147zm0 0"/></g></svg>