<?xml version="1.0" encoding="iso-8859-1"?>
<!-- Generator: Adobe Illustrator 19.0.0, SVG Export Plug-In . SVG Version: 6.00 Build 0)  -->
<svg version="1.1" id="Layer_1" xmlns="http://www.w3.org/2000/svg" xmlns:xlink="http://www.w3.org/1999/xlink" x="0px" y="0px"
	 viewBox="0 0 469.333 469.333" style="enable-background:new 0 0 469.333 469.333;" xml:space="preserve">
<g>
	<g>
		<g>
			<path d="M227.156,274.24c2.083,2.063,4.792,3.094,7.51,3.094s5.427-1.031,7.51-3.094l80.406-79.656
				c12.094-12.073,18.75-28.146,18.75-45.25c0-35.292-28.708-64-64-64c-16.01,0-31.021,5.885-42.667,16.469
				C223.021,91.219,208.01,85.333,192,85.333c-35.292,0-64,28.708-64,64c0,17.104,6.656,33.177,18.781,45.281L227.156,274.24z
				 M192,106.667c13.479,0,25.906,6.313,34.115,17.333c4.021,5.396,13.083,5.396,17.104,0c8.208-11.021,20.635-17.333,34.115-17.333
				c23.531,0,42.667,19.135,42.667,42.667c0,11.396-4.438,22.115-12.469,30.135l-72.865,72.188L161.833,179.5
				c-8.063-8.052-12.5-18.771-12.5-30.167C149.333,125.802,168.469,106.667,192,106.667z"/>
			<path d="M467.38,260.858l0.161-0.108l-40.875-61.312V42.667C426.667,19.135,407.531,0,384,0H85.333
				C61.802,0,42.667,19.135,42.667,42.667v156.771L1.792,260.75l0.161,0.108C0.82,262.552,0,264.473,0,266.667v160
				c0,23.531,19.135,42.667,42.667,42.667h384c23.531,0,42.667-19.135,42.667-42.667v-160
				C469.333,264.473,468.513,262.552,467.38,260.858z M426.667,237.896L438.736,256h-12.069V237.896z M64,42.667
				c0-11.76,9.573-21.333,21.333-21.333H384c11.76,0,21.333,9.573,21.333,21.333V256H384c-23.531,0-42.667,19.135-42.667,42.667
				c0,11.76-9.573,21.333-21.333,21.333H149.333c-11.76,0-21.333-9.573-21.333-21.333C128,275.135,108.865,256,85.333,256H64V42.667
				z M42.667,237.896V256H30.598L42.667,237.896z M448,426.667c0,11.76-9.573,21.333-21.333,21.333h-384
				c-11.76,0-21.333-9.573-21.333-21.333V277.333h64c11.76,0,21.333,9.573,21.333,21.333c0,23.531,19.135,42.667,42.667,42.667H320
				c23.531,0,42.667-19.135,42.667-42.667c0-11.76,9.573-21.333,21.333-21.333h64V426.667z"/>
		</g>
	</g>
</g>
<g>
</g>
<g>
</g>
<g>
</g>
<g>
</g>
<g>
</g>
<g>
</g>
<g>
</g>
<g>
</g>
<g>
</g>
<g>
</g>
<g>
</g>
<g>
</g>
<g>
</g>
<g>
</g>
<g>
</g>
</svg>
